<svg width="700" height="400" viewBox="0 0 700 400" fill="none" xmlns="http://www.w3.org/2000/svg">
<rect width="700" height="400" fill="white"/>
<path d="M462.929 251.029C466.477 299.599 434.805 341.382 392.331 344.484C349.857 347.587 312.449 310.85 308.902 262.28C305.354 213.71 337.026 171.928 379.5 168.826C421.974 165.723 459.381 202.459 462.929 251.029Z" fill="#D7D7D7" stroke="black"/>
<path d="M307.014 240.07C310.905 268.327 306.3 295.007 295.734 315.296C285.167 335.587 268.666 349.448 248.761 352.189C228.857 354.929 209.223 346.044 193.567 329.364C177.911 312.685 166.267 288.242 162.376 259.985C158.485 231.728 163.09 205.048 173.656 184.759C184.223 164.468 200.724 150.607 220.629 147.866C240.533 145.126 260.167 154.011 275.823 170.691C291.479 187.37 303.124 211.813 307.014 240.07Z" fill="#D7D7D7" stroke="black"/>
<path d="M191.303 261.971C197.921 306.558 173.776 346.901 137.605 352.27C101.434 357.639 66.6112 326.049 59.9928 281.462C53.3745 236.875 77.5196 196.532 113.691 191.163C149.862 185.794 184.684 217.384 191.303 261.971Z" fill="#D7D7D7" stroke="black"/>
<path d="M326.757 279.762C329.916 317.329 304.698 350.039 270.532 352.913C236.367 355.786 206.04 327.747 202.88 290.18C199.721 252.612 224.939 219.902 259.105 217.029C293.27 214.156 323.598 242.195 326.757 279.762Z" fill="#D7D7D7" stroke="black"/>
<path d="M446.095 299.51C443.24 335.478 416.613 362.545 386.785 360.178C356.956 357.811 334.931 326.883 337.785 290.915C340.64 254.948 367.267 227.881 397.095 230.248C426.924 232.615 448.949 263.543 446.095 299.51Z" fill="#FD1414" stroke="black"/>
<path d="M586.847 264.695C584.028 291.069 573.66 314.091 559.201 329.994C544.742 345.897 526.221 354.657 507.063 352.61C487.905 350.562 471.653 338.086 460.882 319.485C450.11 300.886 444.842 276.193 447.661 249.819C450.48 223.445 460.848 200.424 475.307 184.521C489.766 168.617 508.288 159.857 527.445 161.905C546.603 163.952 562.855 176.429 573.626 195.029C584.398 213.629 589.666 238.321 586.847 264.695Z" fill="#D7D7D7" stroke="black"/>
<path d="M526.934 100.321C526.5 100.942 525.894 101.408 525.114 101.719C524.341 102.023 523.438 102.176 522.407 102.176C521.364 102.176 520.438 101.933 519.63 101.446C518.821 100.954 518.194 100.257 517.749 99.3545C517.31 98.4521 517.084 97.4062 517.072 96.2168V95.1006C517.072 93.1729 517.521 91.6787 518.417 90.6182C519.319 89.5576 520.585 89.0273 522.214 89.0273C523.55 89.0273 524.625 89.3701 525.439 90.0557C526.254 90.7354 526.752 91.7021 526.934 92.9561H525.246C524.93 91.2627 523.922 90.416 522.223 90.416C521.092 90.416 520.233 90.8145 519.647 91.6113C519.067 92.4023 518.774 93.5508 518.769 95.0566V96.1025C518.769 97.5381 519.097 98.6807 519.753 99.5303C520.409 100.374 521.297 100.796 522.416 100.796C523.049 100.796 523.603 100.726 524.077 100.585C524.552 100.444 524.944 100.207 525.255 99.873V96.999H522.293V95.6279H526.934V100.321ZM533.446 102.176C532.157 102.176 531.108 101.754 530.3 100.91C529.491 100.061 529.087 98.9268 529.087 97.5088V97.21C529.087 96.2666 529.266 95.4258 529.623 94.6875C529.986 93.9434 530.49 93.3633 531.135 92.9473C531.785 92.5254 532.488 92.3145 533.244 92.3145C534.48 92.3145 535.441 92.7217 536.127 93.5361C536.812 94.3506 537.155 95.5166 537.155 97.0342V97.7109H530.713C530.736 98.6484 531.009 99.4072 531.53 99.9873C532.058 100.562 532.726 100.849 533.534 100.849C534.108 100.849 534.595 100.731 534.993 100.497C535.392 100.263 535.74 99.9521 536.039 99.5654L537.032 100.339C536.235 101.563 535.04 102.176 533.446 102.176ZM533.244 93.6504C532.588 93.6504 532.037 93.8906 531.592 94.3711C531.146 94.8457 530.871 95.5137 530.766 96.375H535.529V96.252C535.482 95.4258 535.26 94.7871 534.861 94.3359C534.463 93.8789 533.924 93.6504 533.244 93.6504ZM541.251 90.1875V92.4902H543.026V93.7471H541.251V99.6445C541.251 100.025 541.33 100.312 541.488 100.506C541.646 100.693 541.916 100.787 542.297 100.787C542.484 100.787 542.742 100.752 543.07 100.682V102C542.643 102.117 542.227 102.176 541.822 102.176C541.096 102.176 540.548 101.956 540.179 101.517C539.81 101.077 539.625 100.453 539.625 99.6445V93.7471H537.894V92.4902H539.625V90.1875H541.251ZM551.604 90.1875V92.4902H553.38V93.7471H551.604V99.6445C551.604 100.025 551.684 100.312 551.842 100.506C552 100.693 552.27 100.787 552.65 100.787C552.838 100.787 553.096 100.752 553.424 100.682V102C552.996 102.117 552.58 102.176 552.176 102.176C551.449 102.176 550.901 101.956 550.532 101.517C550.163 101.077 549.979 100.453 549.979 99.6445V93.7471H548.247V92.4902H549.979V90.1875H551.604ZM556.913 93.6416C557.634 92.7568 558.571 92.3145 559.726 92.3145C561.735 92.3145 562.749 93.4482 562.767 95.7158V102H561.141V95.707C561.135 95.0215 560.977 94.5146 560.666 94.1865C560.361 93.8584 559.884 93.6943 559.233 93.6943C558.706 93.6943 558.243 93.835 557.845 94.1162C557.446 94.3975 557.136 94.7666 556.913 95.2236V102H555.287V88.5H556.913V93.6416ZM569.147 102.176C567.858 102.176 566.81 101.754 566.001 100.91C565.192 100.061 564.788 98.9268 564.788 97.5088V97.21C564.788 96.2666 564.967 95.4258 565.324 94.6875C565.688 93.9434 566.191 93.3633 566.836 92.9473C567.486 92.5254 568.189 92.3145 568.945 92.3145C570.182 92.3145 571.143 92.7217 571.828 93.5361C572.514 94.3506 572.856 95.5166 572.856 97.0342V97.7109H566.414C566.438 98.6484 566.71 99.4072 567.231 99.9873C567.759 100.562 568.427 100.849 569.235 100.849C569.81 100.849 570.296 100.731 570.694 100.497C571.093 100.263 571.441 99.9521 571.74 99.5654L572.733 100.339C571.937 101.563 570.741 102.176 569.147 102.176ZM568.945 93.6504C568.289 93.6504 567.738 93.8906 567.293 94.3711C566.848 94.8457 566.572 95.5137 566.467 96.375H571.23V96.252C571.184 95.4258 570.961 94.7871 570.562 94.3359C570.164 93.8789 569.625 93.6504 568.945 93.6504ZM583.702 99.7588L587.358 89.2031H589.204L584.458 102H582.964L578.227 89.2031H580.063L583.702 99.7588ZM594.231 102.176C592.942 102.176 591.894 101.754 591.085 100.91C590.276 100.061 589.872 98.9268 589.872 97.5088V97.21C589.872 96.2666 590.051 95.4258 590.408 94.6875C590.771 93.9434 591.275 93.3633 591.92 92.9473C592.57 92.5254 593.273 92.3145 594.029 92.3145C595.266 92.3145 596.227 92.7217 596.912 93.5361C597.598 94.3506 597.94 95.5166 597.94 97.0342V97.7109H591.498C591.521 98.6484 591.794 99.4072 592.315 99.9873C592.843 100.562 593.511 100.849 594.319 100.849C594.894 100.849 595.38 100.731 595.778 100.497C596.177 100.263 596.525 99.9521 596.824 99.5654L597.817 100.339C597.021 101.563 595.825 102.176 594.231 102.176ZM594.029 93.6504C593.373 93.6504 592.822 93.8906 592.377 94.3711C591.932 94.8457 591.656 95.5137 591.551 96.375H596.314V96.252C596.268 95.4258 596.045 94.7871 595.646 94.3359C595.248 93.8789 594.709 93.6504 594.029 93.6504ZM604.427 93.9492C604.181 93.9082 603.914 93.8877 603.627 93.8877C602.561 93.8877 601.837 94.3418 601.456 95.25V102H599.83V92.4902H601.412L601.438 93.5889C601.972 92.7393 602.728 92.3145 603.706 92.3145C604.022 92.3145 604.263 92.3555 604.427 92.4375V93.9492ZM607.696 102H606.07V92.4902H607.696V102ZM605.938 89.9678C605.938 89.7041 606.018 89.4814 606.176 89.2998C606.34 89.1182 606.58 89.0273 606.896 89.0273C607.213 89.0273 607.453 89.1182 607.617 89.2998C607.781 89.4814 607.863 89.7041 607.863 89.9678C607.863 90.2314 607.781 90.4512 607.617 90.627C607.453 90.8027 607.213 90.8906 606.896 90.8906C606.58 90.8906 606.34 90.8027 606.176 90.627C606.018 90.4512 605.938 90.2314 605.938 89.9678ZM610.852 102V93.7471H609.349V92.4902H610.852V91.6816C610.852 90.6211 611.153 89.7949 611.757 89.2031C612.366 88.6113 613.225 88.3154 614.332 88.3154C614.988 88.3154 615.817 88.4941 616.819 88.8516L616.547 90.2227C615.814 89.9297 615.117 89.7832 614.455 89.7832C613.758 89.7832 613.254 89.9414 612.943 90.2578C612.639 90.5684 612.486 91.0371 612.486 91.6641V92.4902H614.429V93.7471H612.486V102H610.852ZM617.628 102H615.993V92.4902H617.628V102ZM624.22 102.176C622.931 102.176 621.882 101.754 621.073 100.91C620.265 100.061 619.86 98.9268 619.86 97.5088V97.21C619.86 96.2666 620.039 95.4258 620.396 94.6875C620.76 93.9434 621.264 93.3633 621.908 92.9473C622.559 92.5254 623.262 92.3145 624.018 92.3145C625.254 92.3145 626.215 92.7217 626.9 93.5361C627.586 94.3506 627.929 95.5166 627.929 97.0342V97.7109H621.486C621.51 98.6484 621.782 99.4072 622.304 99.9873C622.831 100.562 623.499 100.849 624.308 100.849C624.882 100.849 625.368 100.731 625.767 100.497C626.165 100.263 626.514 99.9521 626.812 99.5654L627.806 100.339C627.009 101.563 625.813 102.176 624.22 102.176ZM624.018 93.6504C623.361 93.6504 622.811 93.8906 622.365 94.3711C621.92 94.8457 621.645 95.5137 621.539 96.375H626.303V96.252C626.256 95.4258 626.033 94.7871 625.635 94.3359C625.236 93.8789 624.697 93.6504 624.018 93.6504ZM629.423 97.166C629.423 95.707 629.769 94.5352 630.46 93.6504C631.151 92.7598 632.057 92.3145 633.176 92.3145C634.289 92.3145 635.171 92.6953 635.821 93.457V88.5H637.447V102H635.953L635.874 100.98C635.224 101.777 634.318 102.176 633.158 102.176C632.057 102.176 631.157 101.725 630.46 100.822C629.769 99.9199 629.423 98.7422 629.423 97.2891V97.166ZM631.049 97.3506C631.049 98.4287 631.271 99.2725 631.717 99.8818C632.162 100.491 632.777 100.796 633.562 100.796C634.594 100.796 635.347 100.333 635.821 99.4072V95.0391C635.335 94.1426 634.588 93.6943 633.58 93.6943C632.783 93.6943 632.162 94.002 631.717 94.6172C631.271 95.2324 631.049 96.1436 631.049 97.3506ZM646.649 90.1875V92.4902H648.425V93.7471H646.649V99.6445C646.649 100.025 646.729 100.312 646.887 100.506C647.045 100.693 647.314 100.787 647.695 100.787C647.883 100.787 648.141 100.752 648.469 100.682V102C648.041 102.117 647.625 102.176 647.221 102.176C646.494 102.176 645.946 101.956 645.577 101.517C645.208 101.077 645.023 100.453 645.023 99.6445V93.7471H643.292V92.4902H645.023V90.1875H646.649ZM652.099 102H650.473V92.4902H652.099V102ZM650.341 89.9678C650.341 89.7041 650.42 89.4814 650.578 89.2998C650.742 89.1182 650.982 89.0273 651.299 89.0273C651.615 89.0273 651.855 89.1182 652.02 89.2998C652.184 89.4814 652.266 89.7041 652.266 89.9678C652.266 90.2314 652.184 90.4512 652.02 90.627C651.855 90.8027 651.615 90.8906 651.299 90.8906C650.982 90.8906 650.742 90.8027 650.578 90.627C650.42 90.4512 650.341 90.2314 650.341 89.9678ZM658.523 100.849C659.104 100.849 659.61 100.673 660.044 100.321C660.478 99.9697 660.718 99.5303 660.765 99.0029H662.303C662.273 99.5479 662.086 100.066 661.74 100.559C661.395 101.051 660.932 101.443 660.352 101.736C659.777 102.029 659.168 102.176 658.523 102.176C657.229 102.176 656.197 101.745 655.43 100.884C654.668 100.017 654.287 98.833 654.287 97.333V97.0605C654.287 96.1348 654.457 95.3115 654.797 94.5908C655.137 93.8701 655.623 93.3105 656.256 92.9121C656.895 92.5137 657.647 92.3145 658.515 92.3145C659.581 92.3145 660.466 92.6338 661.169 93.2725C661.878 93.9111 662.256 94.7402 662.303 95.7598H660.765C660.718 95.1445 660.483 94.6406 660.062 94.248C659.646 93.8496 659.13 93.6504 658.515 93.6504C657.688 93.6504 657.047 93.9492 656.59 94.5469C656.139 95.1387 655.913 95.9971 655.913 97.1221V97.4297C655.913 98.5254 656.139 99.3691 656.59 99.9609C657.041 100.553 657.686 100.849 658.523 100.849ZM666.785 97.5967L665.766 98.6602V102H664.14V88.5H665.766V96.665L666.636 95.6191L669.598 92.4902H671.575L667.875 96.4629L672.006 102H670.099L666.785 97.5967ZM516.8 118.157C516.8 117.226 516.981 116.388 517.345 115.644C517.714 114.899 518.224 114.325 518.874 113.921C519.53 113.517 520.277 113.314 521.115 113.314C522.41 113.314 523.456 113.763 524.253 114.659C525.056 115.556 525.457 116.748 525.457 118.236V118.351C525.457 119.276 525.278 120.108 524.921 120.847C524.569 121.579 524.062 122.15 523.4 122.561C522.744 122.971 521.988 123.176 521.133 123.176C519.844 123.176 518.798 122.728 517.995 121.831C517.198 120.935 516.8 119.748 516.8 118.271V118.157ZM518.435 118.351C518.435 119.405 518.678 120.252 519.164 120.891C519.656 121.529 520.312 121.849 521.133 121.849C521.959 121.849 522.615 121.526 523.102 120.882C523.588 120.231 523.831 119.323 523.831 118.157C523.831 117.114 523.582 116.271 523.084 115.626C522.592 114.976 521.936 114.65 521.115 114.65C520.312 114.65 519.665 114.97 519.173 115.608C518.681 116.247 518.435 117.161 518.435 118.351ZM529.034 113.49L529.087 114.686C529.813 113.771 530.763 113.314 531.935 113.314C533.944 113.314 534.958 114.448 534.976 116.716V123H533.35V116.707C533.344 116.021 533.186 115.515 532.875 115.187C532.57 114.858 532.093 114.694 531.442 114.694C530.915 114.694 530.452 114.835 530.054 115.116C529.655 115.397 529.345 115.767 529.122 116.224V123H527.496V113.49H529.034ZM545.004 120.618L547.219 113.49H548.959L545.136 124.468C544.544 126.05 543.604 126.841 542.314 126.841L542.007 126.814L541.4 126.7V125.382L541.84 125.417C542.391 125.417 542.818 125.306 543.123 125.083C543.434 124.86 543.688 124.453 543.888 123.861L544.248 122.895L540.855 113.49H542.631L545.004 120.618ZM549.847 118.157C549.847 117.226 550.028 116.388 550.392 115.644C550.761 114.899 551.271 114.325 551.921 113.921C552.577 113.517 553.324 113.314 554.162 113.314C555.457 113.314 556.503 113.763 557.3 114.659C558.103 115.556 558.504 116.748 558.504 118.236V118.351C558.504 119.276 558.325 120.108 557.968 120.847C557.616 121.579 557.109 122.15 556.447 122.561C555.791 122.971 555.035 123.176 554.18 123.176C552.891 123.176 551.845 122.728 551.042 121.831C550.245 120.935 549.847 119.748 549.847 118.271V118.157ZM551.481 118.351C551.481 119.405 551.725 120.252 552.211 120.891C552.703 121.529 553.359 121.849 554.18 121.849C555.006 121.849 555.662 121.526 556.148 120.882C556.635 120.231 556.878 119.323 556.878 118.157C556.878 117.114 556.629 116.271 556.131 115.626C555.639 114.976 554.982 114.65 554.162 114.65C553.359 114.65 552.712 114.97 552.22 115.608C551.728 116.247 551.481 117.161 551.481 118.351ZM566.414 122.06C565.781 122.804 564.853 123.176 563.628 123.176C562.614 123.176 561.841 122.883 561.308 122.297C560.78 121.705 560.514 120.832 560.508 119.678V113.49H562.134V119.634C562.134 121.075 562.72 121.796 563.892 121.796C565.134 121.796 565.96 121.333 566.37 120.407V113.49H567.996V123H566.449L566.414 122.06ZM577.146 111.188V113.49H578.921V114.747H577.146V120.645C577.146 121.025 577.225 121.312 577.383 121.506C577.541 121.693 577.811 121.787 578.191 121.787C578.379 121.787 578.637 121.752 578.965 121.682V123C578.537 123.117 578.121 123.176 577.717 123.176C576.99 123.176 576.442 122.956 576.073 122.517C575.704 122.077 575.52 121.453 575.52 120.645V114.747H573.788V113.49H575.52V111.188H577.146ZM582.454 114.642C583.175 113.757 584.112 113.314 585.267 113.314C587.276 113.314 588.29 114.448 588.308 116.716V123H586.682V116.707C586.676 116.021 586.518 115.515 586.207 115.187C585.902 114.858 585.425 114.694 584.774 114.694C584.247 114.694 583.784 114.835 583.386 115.116C582.987 115.397 582.677 115.767 582.454 116.224V123H580.828V109.5H582.454V114.642ZM594.688 123.176C593.399 123.176 592.351 122.754 591.542 121.91C590.733 121.061 590.329 119.927 590.329 118.509V118.21C590.329 117.267 590.508 116.426 590.865 115.688C591.229 114.943 591.732 114.363 592.377 113.947C593.027 113.525 593.73 113.314 594.486 113.314C595.723 113.314 596.684 113.722 597.369 114.536C598.055 115.351 598.397 116.517 598.397 118.034V118.711H591.955C591.979 119.648 592.251 120.407 592.772 120.987C593.3 121.562 593.968 121.849 594.776 121.849C595.351 121.849 595.837 121.731 596.235 121.497C596.634 121.263 596.982 120.952 597.281 120.565L598.274 121.339C597.478 122.563 596.282 123.176 594.688 123.176ZM594.486 114.65C593.83 114.65 593.279 114.891 592.834 115.371C592.389 115.846 592.113 116.514 592.008 117.375H596.771V117.252C596.725 116.426 596.502 115.787 596.104 115.336C595.705 114.879 595.166 114.65 594.486 114.65ZM601.825 113.49L601.878 114.686C602.604 113.771 603.554 113.314 604.726 113.314C606.735 113.314 607.749 114.448 607.767 116.716V123H606.141V116.707C606.135 116.021 605.977 115.515 605.666 115.187C605.361 114.858 604.884 114.694 604.233 114.694C603.706 114.694 603.243 114.835 602.845 115.116C602.446 115.397 602.136 115.767 601.913 116.224V123H600.287V113.49H601.825ZM612.038 119.388H610.57L610.456 110.203H612.161L612.038 119.388ZM610.395 122.183C610.395 121.919 610.474 121.699 610.632 121.523C610.796 121.342 611.036 121.251 611.353 121.251C611.669 121.251 611.909 121.342 612.073 121.523C612.237 121.699 612.319 121.919 612.319 122.183C612.319 122.446 612.237 122.666 612.073 122.842C611.909 123.012 611.669 123.097 611.353 123.097C611.036 123.097 610.796 123.012 610.632 122.842C610.474 122.666 610.395 122.446 610.395 122.183Z" fill="black"/>
<path d="M246.485 71V58.2031H250.098C251.211 58.2031 252.195 58.4492 253.051 58.9414C253.906 59.4336 254.565 60.1338 255.028 61.042C255.497 61.9502 255.734 62.9932 255.74 64.1709V64.9883C255.74 66.1953 255.506 67.2529 255.037 68.1611C254.574 69.0693 253.909 69.7666 253.042 70.2529C252.181 70.7393 251.176 70.9883 250.027 71H246.485ZM248.173 59.5918V69.6201H249.948C251.249 69.6201 252.26 69.2158 252.98 68.4072C253.707 67.5986 254.07 66.4473 254.07 64.9531V64.2061C254.07 62.7529 253.728 61.625 253.042 60.8223C252.362 60.0137 251.396 59.6035 250.142 59.5918H248.173ZM263.914 70.0596C263.281 70.8037 262.353 71.1758 261.128 71.1758C260.114 71.1758 259.341 70.8828 258.808 70.2969C258.28 69.7051 258.014 68.832 258.008 67.6777V61.4902H259.634V67.6338C259.634 69.0752 260.22 69.7959 261.392 69.7959C262.634 69.7959 263.46 69.333 263.87 68.4072V61.4902H265.496V71H263.949L263.914 70.0596ZM267.579 66.166C267.579 64.707 267.925 63.5352 268.616 62.6504C269.308 61.7598 270.213 61.3145 271.332 61.3145C272.445 61.3145 273.327 61.6953 273.978 62.457V57.5H275.604V71H274.109L274.03 69.9805C273.38 70.7773 272.475 71.1758 271.314 71.1758C270.213 71.1758 269.313 70.7246 268.616 69.8223C267.925 68.9199 267.579 67.7422 267.579 66.2891V66.166ZM269.205 66.3506C269.205 67.4287 269.428 68.2725 269.873 68.8818C270.318 69.4912 270.934 69.7959 271.719 69.7959C272.75 69.7959 273.503 69.333 273.978 68.4072V64.0391C273.491 63.1426 272.744 62.6943 271.736 62.6943C270.939 62.6943 270.318 63.002 269.873 63.6172C269.428 64.2324 269.205 65.1436 269.205 66.3506ZM282.081 71.1758C280.792 71.1758 279.743 70.7539 278.935 69.9102C278.126 69.0605 277.722 67.9268 277.722 66.5088V66.21C277.722 65.2666 277.9 64.4258 278.258 63.6875C278.621 62.9434 279.125 62.3633 279.77 61.9473C280.42 61.5254 281.123 61.3145 281.879 61.3145C283.115 61.3145 284.076 61.7217 284.762 62.5361C285.447 63.3506 285.79 64.5166 285.79 66.0342V66.7109H279.348C279.371 67.6484 279.644 68.4072 280.165 68.9873C280.692 69.5615 281.36 69.8486 282.169 69.8486C282.743 69.8486 283.229 69.7314 283.628 69.4971C284.026 69.2627 284.375 68.9521 284.674 68.5654L285.667 69.3389C284.87 70.5635 283.675 71.1758 282.081 71.1758ZM281.879 62.6504C281.223 62.6504 280.672 62.8906 280.227 63.3711C279.781 63.8457 279.506 64.5137 279.4 65.375H284.164V65.252C284.117 64.4258 283.895 63.7871 283.496 63.3359C283.098 62.8789 282.559 62.6504 281.879 62.6504ZM289.499 67.3877H288.031L287.917 58.2031H289.622L289.499 67.3877ZM287.855 70.1826C287.855 69.9189 287.935 69.6992 288.093 69.5234C288.257 69.3418 288.497 69.251 288.813 69.251C289.13 69.251 289.37 69.3418 289.534 69.5234C289.698 69.6992 289.78 69.9189 289.78 70.1826C289.78 70.4463 289.698 70.666 289.534 70.8418C289.37 71.0117 289.13 71.0967 288.813 71.0967C288.497 71.0967 288.257 71.0117 288.093 70.8418C287.935 70.666 287.855 70.4463 287.855 70.1826ZM298.851 71H297.163V58.2031H298.851V71ZM301.804 61.8066L300.881 61.1738C301.426 60.4121 301.707 59.6094 301.725 58.7656V57.5H303.333V58.6426C303.327 59.2285 303.181 59.8145 302.894 60.4004C302.612 60.9805 302.249 61.4492 301.804 61.8066ZM306.646 61.4902L306.69 62.5449C307.388 61.7246 308.328 61.3145 309.512 61.3145C310.842 61.3145 311.747 61.8242 312.228 62.8438C312.544 62.3867 312.954 62.0176 313.458 61.7363C313.968 61.4551 314.568 61.3145 315.26 61.3145C317.346 61.3145 318.406 62.4189 318.441 64.6279V71H316.815V64.7246C316.815 64.0449 316.66 63.5381 316.35 63.2041C316.039 62.8643 315.518 62.6943 314.785 62.6943C314.182 62.6943 313.681 62.876 313.282 63.2393C312.884 63.5967 312.652 64.0801 312.588 64.6895V71H310.953V64.7686C310.953 63.3857 310.276 62.6943 308.923 62.6943C307.856 62.6943 307.127 63.1484 306.734 64.0566V71H305.108V61.4902H306.646ZM330.904 68.4775C330.904 68.0381 330.737 67.6982 330.403 67.458C330.075 67.2119 329.498 67.001 328.672 66.8252C327.852 66.6494 327.198 66.4385 326.712 66.1924C326.231 65.9463 325.874 65.6533 325.64 65.3135C325.411 64.9736 325.297 64.5693 325.297 64.1006C325.297 63.3213 325.625 62.6621 326.281 62.123C326.943 61.584 327.787 61.3145 328.812 61.3145C329.891 61.3145 330.764 61.5928 331.432 62.1494C332.105 62.7061 332.442 63.418 332.442 64.2852H330.808C330.808 63.8398 330.617 63.4561 330.236 63.1338C329.861 62.8115 329.387 62.6504 328.812 62.6504C328.221 62.6504 327.758 62.7793 327.424 63.0371C327.09 63.2949 326.923 63.6318 326.923 64.0479C326.923 64.4404 327.078 64.7363 327.389 64.9355C327.699 65.1348 328.259 65.3252 329.067 65.5068C329.882 65.6885 330.541 65.9053 331.045 66.1572C331.549 66.4092 331.921 66.7139 332.161 67.0713C332.407 67.4229 332.53 67.8535 332.53 68.3633C332.53 69.2129 332.19 69.8955 331.511 70.4111C330.831 70.9209 329.949 71.1758 328.865 71.1758C328.104 71.1758 327.43 71.041 326.844 70.7715C326.258 70.502 325.798 70.127 325.464 69.6465C325.136 69.1602 324.972 68.6357 324.972 68.0732H326.598C326.627 68.6182 326.844 69.0518 327.248 69.374C327.658 69.6904 328.197 69.8486 328.865 69.8486C329.48 69.8486 329.973 69.7256 330.342 69.4795C330.717 69.2275 330.904 68.8936 330.904 68.4775ZM334.218 66.1572C334.218 65.2256 334.399 64.3877 334.763 63.6436C335.132 62.8994 335.642 62.3252 336.292 61.9209C336.948 61.5166 337.695 61.3145 338.533 61.3145C339.828 61.3145 340.874 61.7627 341.671 62.6592C342.474 63.5557 342.875 64.748 342.875 66.2363V66.3506C342.875 67.2764 342.696 68.1084 342.339 68.8467C341.987 69.5791 341.48 70.1504 340.818 70.5605C340.162 70.9707 339.406 71.1758 338.551 71.1758C337.262 71.1758 336.216 70.7275 335.413 69.8311C334.616 68.9346 334.218 67.748 334.218 66.2715V66.1572ZM335.853 66.3506C335.853 67.4053 336.096 68.252 336.582 68.8906C337.074 69.5293 337.73 69.8486 338.551 69.8486C339.377 69.8486 340.033 69.5264 340.52 68.8818C341.006 68.2314 341.249 67.3232 341.249 66.1572C341.249 65.1143 341 64.2705 340.502 63.626C340.01 62.9756 339.354 62.6504 338.533 62.6504C337.73 62.6504 337.083 62.9697 336.591 63.6084C336.099 64.2471 335.853 65.1611 335.853 66.3506ZM351.146 71H349.52V57.5H351.146V71ZM357.702 71.1758C356.413 71.1758 355.364 70.7539 354.556 69.9102C353.747 69.0605 353.343 67.9268 353.343 66.5088V66.21C353.343 65.2666 353.521 64.4258 353.879 63.6875C354.242 62.9434 354.746 62.3633 355.391 61.9473C356.041 61.5254 356.744 61.3145 357.5 61.3145C358.736 61.3145 359.697 61.7217 360.383 62.5361C361.068 63.3506 361.411 64.5166 361.411 66.0342V66.7109H354.969C354.992 67.6484 355.265 68.4072 355.786 68.9873C356.313 69.5615 356.981 69.8486 357.79 69.8486C358.364 69.8486 358.851 69.7314 359.249 69.4971C359.647 69.2627 359.996 68.9521 360.295 68.5654L361.288 69.3389C360.491 70.5635 359.296 71.1758 357.702 71.1758ZM357.5 62.6504C356.844 62.6504 356.293 62.8906 355.848 63.3711C355.402 63.8457 355.127 64.5137 355.021 65.375H359.785V65.252C359.738 64.4258 359.516 63.7871 359.117 63.3359C358.719 62.8789 358.18 62.6504 357.5 62.6504ZM362.914 66.166C362.914 64.6836 363.257 63.5059 363.942 62.6328C364.628 61.7539 365.536 61.3145 366.667 61.3145C367.827 61.3145 368.732 61.7246 369.383 62.5449L369.462 61.4902H370.947V70.7715C370.947 72.002 370.581 72.9717 369.849 73.6807C369.122 74.3896 368.144 74.7441 366.913 74.7441C366.228 74.7441 365.557 74.5977 364.9 74.3047C364.244 74.0117 363.743 73.6104 363.397 73.1006L364.241 72.125C364.938 72.9863 365.791 73.417 366.799 73.417C367.59 73.417 368.205 73.1943 368.645 72.749C369.09 72.3037 369.312 71.6768 369.312 70.8682V70.0508C368.662 70.8008 367.774 71.1758 366.649 71.1758C365.536 71.1758 364.634 70.7275 363.942 69.8311C363.257 68.9346 362.914 67.7129 362.914 66.166ZM364.549 66.3506C364.549 67.4229 364.769 68.2666 365.208 68.8818C365.647 69.4912 366.263 69.7959 367.054 69.7959C368.079 69.7959 368.832 69.3301 369.312 68.3984V64.0566C368.814 63.1484 368.067 62.6943 367.071 62.6943C366.28 62.6943 365.662 63.002 365.217 63.6172C364.771 64.2324 364.549 65.1436 364.549 66.3506ZM375.175 71H373.549V61.4902H375.175V71ZM373.417 58.9678C373.417 58.7041 373.496 58.4814 373.654 58.2998C373.818 58.1182 374.059 58.0273 374.375 58.0273C374.691 58.0273 374.932 58.1182 375.096 58.2998C375.26 58.4814 375.342 58.7041 375.342 58.9678C375.342 59.2314 375.26 59.4512 375.096 59.627C374.932 59.8027 374.691 59.8906 374.375 59.8906C374.059 59.8906 373.818 59.8027 373.654 59.627C373.496 59.4512 373.417 59.2314 373.417 58.9678ZM379.991 59.1875V61.4902H381.767V62.7471H379.991V68.6445C379.991 69.0254 380.07 69.3125 380.229 69.5059C380.387 69.6934 380.656 69.7871 381.037 69.7871C381.225 69.7871 381.482 69.752 381.811 69.6816V71C381.383 71.1172 380.967 71.1758 380.562 71.1758C379.836 71.1758 379.288 70.9561 378.919 70.5166C378.55 70.0771 378.365 69.4531 378.365 68.6445V62.7471H376.634V61.4902H378.365V59.1875H379.991ZM391.25 68.6182L393.465 61.4902H395.205L391.382 72.4678C390.79 74.0498 389.85 74.8408 388.561 74.8408L388.253 74.8145L387.646 74.7002V73.3818L388.086 73.417C388.637 73.417 389.064 73.3057 389.369 73.083C389.68 72.8604 389.935 72.4531 390.134 71.8613L390.494 70.8945L387.102 61.4902H388.877L391.25 68.6182ZM396.093 66.1572C396.093 65.2256 396.274 64.3877 396.638 63.6436C397.007 62.8994 397.517 62.3252 398.167 61.9209C398.823 61.5166 399.57 61.3145 400.408 61.3145C401.703 61.3145 402.749 61.7627 403.546 62.6592C404.349 63.5557 404.75 64.748 404.75 66.2363V66.3506C404.75 67.2764 404.571 68.1084 404.214 68.8467C403.862 69.5791 403.355 70.1504 402.693 70.5605C402.037 70.9707 401.281 71.1758 400.426 71.1758C399.137 71.1758 398.091 70.7275 397.288 69.8311C396.491 68.9346 396.093 67.748 396.093 66.2715V66.1572ZM397.728 66.3506C397.728 67.4053 397.971 68.252 398.457 68.8906C398.949 69.5293 399.605 69.8486 400.426 69.8486C401.252 69.8486 401.908 69.5264 402.395 68.8818C402.881 68.2314 403.124 67.3232 403.124 66.1572C403.124 65.1143 402.875 64.2705 402.377 63.626C401.885 62.9756 401.229 62.6504 400.408 62.6504C399.605 62.6504 398.958 62.9697 398.466 63.6084C397.974 64.2471 397.728 65.1611 397.728 66.3506ZM412.66 70.0596C412.027 70.8037 411.099 71.1758 409.874 71.1758C408.86 71.1758 408.087 70.8828 407.554 70.2969C407.026 69.7051 406.76 68.832 406.754 67.6777V61.4902H408.38V67.6338C408.38 69.0752 408.966 69.7959 410.138 69.7959C411.38 69.7959 412.206 69.333 412.616 68.4072V61.4902H414.242V71H412.695L412.66 70.0596ZM425 69.8486C425.58 69.8486 426.087 69.6729 426.521 69.3213C426.954 68.9697 427.194 68.5303 427.241 68.0029H428.779C428.75 68.5479 428.562 69.0664 428.217 69.5586C427.871 70.0508 427.408 70.4434 426.828 70.7363C426.254 71.0293 425.645 71.1758 425 71.1758C423.705 71.1758 422.674 70.7451 421.906 69.8838C421.145 69.0166 420.764 67.833 420.764 66.333V66.0605C420.764 65.1348 420.934 64.3115 421.273 63.5908C421.613 62.8701 422.1 62.3105 422.732 61.9121C423.371 61.5137 424.124 61.3145 424.991 61.3145C426.058 61.3145 426.942 61.6338 427.646 62.2725C428.354 62.9111 428.732 63.7402 428.779 64.7598H427.241C427.194 64.1445 426.96 63.6406 426.538 63.248C426.122 62.8496 425.606 62.6504 424.991 62.6504C424.165 62.6504 423.523 62.9492 423.066 63.5469C422.615 64.1387 422.39 64.9971 422.39 66.1221V66.4297C422.39 67.5254 422.615 68.3691 423.066 68.9609C423.518 69.5527 424.162 69.8486 425 69.8486ZM436.479 71C436.385 70.8125 436.309 70.4785 436.25 69.998C435.494 70.7832 434.592 71.1758 433.543 71.1758C432.605 71.1758 431.835 70.9121 431.231 70.3848C430.634 69.8516 430.335 69.1777 430.335 68.3633C430.335 67.373 430.71 66.6055 431.46 66.0605C432.216 65.5098 433.276 65.2344 434.642 65.2344H436.224V64.4873C436.224 63.9189 436.054 63.4678 435.714 63.1338C435.374 62.7939 434.873 62.624 434.211 62.624C433.631 62.624 433.145 62.7705 432.752 63.0635C432.359 63.3564 432.163 63.7109 432.163 64.127H430.528C430.528 63.6523 430.695 63.1953 431.029 62.7559C431.369 62.3105 431.826 61.959 432.4 61.7012C432.98 61.4434 433.616 61.3145 434.308 61.3145C435.403 61.3145 436.262 61.5898 436.883 62.1406C437.504 62.6855 437.826 63.4385 437.85 64.3994V68.7764C437.85 69.6494 437.961 70.3438 438.184 70.8594V71H436.479ZM433.78 69.7607C434.29 69.7607 434.773 69.6289 435.23 69.3652C435.688 69.1016 436.019 68.7588 436.224 68.3369V66.3857H434.949C432.957 66.3857 431.961 66.9688 431.961 68.1348C431.961 68.6445 432.131 69.043 432.471 69.3301C432.811 69.6172 433.247 69.7607 433.78 69.7607ZM441.937 61.4902L441.989 62.6855C442.716 61.7715 443.665 61.3145 444.837 61.3145C446.847 61.3145 447.86 62.4482 447.878 64.7158V71H446.252V64.707C446.246 64.0215 446.088 63.5146 445.777 63.1865C445.473 62.8584 444.995 62.6943 444.345 62.6943C443.817 62.6943 443.354 62.835 442.956 63.1162C442.558 63.3975 442.247 63.7666 442.024 64.2236V71H440.398V61.4902H441.937ZM247.443 78.333L248.375 78.9658C247.83 79.71 247.549 80.5127 247.531 81.374V82.5693H245.914V81.5498C245.914 80.9521 246.055 80.3604 246.336 79.7744C246.623 79.1885 246.992 78.708 247.443 78.333ZM250.212 78.333L251.144 78.9658C250.599 79.71 250.317 80.5127 250.3 81.374V82.5693H248.683V81.5498C248.683 80.9521 248.823 80.3604 249.104 79.7744C249.392 79.1885 249.761 78.708 250.212 78.333ZM252.33 92V79.2031H256.452C257.583 79.2031 258.6 79.4609 259.502 79.9766C260.404 80.4863 261.107 81.21 261.611 82.1475C262.121 83.0791 262.379 84.125 262.385 85.2852V85.874C262.385 87.0459 262.136 88.0977 261.638 89.0293C261.146 89.9551 260.448 90.6816 259.546 91.209C258.649 91.7305 257.647 91.9941 256.54 92H252.33ZM255.415 81.585V89.627H256.487C257.372 89.627 258.052 89.3135 258.526 88.6865C259.001 88.0537 259.238 87.1162 259.238 85.874V85.3203C259.238 84.084 259.001 83.1523 258.526 82.5254C258.052 81.8984 257.36 81.585 256.452 81.585H255.415ZM263.457 87.1572C263.457 86.208 263.642 85.3643 264.011 84.626C264.38 83.8818 264.91 83.3105 265.602 82.9121C266.293 82.5137 267.104 82.3145 268.036 82.3145C269.46 82.3145 270.582 82.7568 271.402 83.6416C272.223 84.5205 272.633 85.7188 272.633 87.2363V87.3418C272.633 88.8242 272.22 90.002 271.394 90.875C270.573 91.7422 269.46 92.1758 268.054 92.1758C266.7 92.1758 265.613 91.7715 264.793 90.9629C263.973 90.1484 263.53 89.0469 263.466 87.6582L263.457 87.1572ZM266.419 87.3418C266.419 88.2207 266.557 88.8652 266.832 89.2754C267.107 89.6855 267.515 89.8906 268.054 89.8906C269.108 89.8906 269.647 89.0791 269.671 87.4561V87.1572C269.671 85.4521 269.126 84.5996 268.036 84.5996C267.046 84.5996 266.51 85.335 266.428 86.8057L266.419 87.3418ZM279.603 90.9717C278.976 91.7744 278.129 92.1758 277.062 92.1758C276.02 92.1758 275.229 91.874 274.689 91.2705C274.156 90.6611 273.89 89.7881 273.89 88.6514V82.4902H276.852V88.6689C276.852 89.4834 277.247 89.8906 278.038 89.8906C278.718 89.8906 279.201 89.6475 279.488 89.1611V82.4902H282.468V92H279.69L279.603 90.9717ZM292.927 87.3242C292.927 88.8828 292.604 90.0811 291.96 90.9189C291.315 91.7568 290.407 92.1758 289.235 92.1758C288.269 92.1758 287.489 91.792 286.897 91.0244L286.774 92H284.12V78.5H287.082V83.2549C287.633 82.6279 288.345 82.3145 289.218 82.3145C290.401 82.3145 291.315 82.7393 291.96 83.5889C292.604 84.4385 292.927 85.6338 292.927 87.1748V87.3242ZM289.956 87.1396C289.956 86.2256 289.833 85.5752 289.587 85.1885C289.347 84.7959 288.975 84.5996 288.471 84.5996C287.803 84.5996 287.34 84.8545 287.082 85.3643V89.1436C287.334 89.6475 287.803 89.8994 288.488 89.8994C289.186 89.8994 289.628 89.5596 289.815 88.8799C289.909 88.5459 289.956 87.9658 289.956 87.1396ZM297.365 92H294.395V78.5H297.365V92ZM303.799 92.1758C302.34 92.1758 301.159 91.7422 300.257 90.875C299.354 90.002 298.903 88.8682 298.903 87.4736V87.2275C298.903 86.2549 299.082 85.3965 299.439 84.6523C299.803 83.9082 300.33 83.334 301.021 82.9297C301.713 82.5195 302.533 82.3145 303.482 82.3145C304.818 82.3145 305.873 82.7305 306.646 83.5625C307.42 84.3887 307.807 85.543 307.807 87.0254V88.1768H301.918C302.023 88.71 302.255 89.1289 302.612 89.4336C302.97 89.7383 303.433 89.8906 304.001 89.8906C304.938 89.8906 305.671 89.5625 306.198 88.9062L307.552 90.5059C307.183 91.0156 306.658 91.4229 305.979 91.7275C305.305 92.0264 304.578 92.1758 303.799 92.1758ZM303.465 84.5996C302.598 84.5996 302.082 85.1738 301.918 86.3223H304.906V86.0938C304.918 85.6191 304.798 85.2529 304.546 84.9951C304.294 84.7314 303.934 84.5996 303.465 84.5996ZM320.894 89.6094H316.666L315.928 92H312.632L317.325 79.2031H320.226L324.954 92H321.641L320.894 89.6094ZM317.404 87.2275H320.155L318.775 82.7891L317.404 87.2275ZM331.317 90.9717C330.69 91.7744 329.844 92.1758 328.777 92.1758C327.734 92.1758 326.943 91.874 326.404 91.2705C325.871 90.6611 325.604 89.7881 325.604 88.6514V82.4902H328.566V88.6689C328.566 89.4834 328.962 89.8906 329.753 89.8906C330.433 89.8906 330.916 89.6475 331.203 89.1611V82.4902H334.183V92H331.405L331.317 90.9717ZM339.263 80.126V82.4902H340.827V84.5469H339.263V88.8975C339.263 89.2549 339.327 89.5039 339.456 89.6445C339.585 89.7852 339.84 89.8555 340.221 89.8555C340.514 89.8555 340.76 89.8379 340.959 89.8027V91.9209C340.426 92.0908 339.869 92.1758 339.289 92.1758C338.27 92.1758 337.517 91.9355 337.03 91.4551C336.544 90.9746 336.301 90.2451 336.301 89.2666V84.5469H335.088V82.4902H336.301V80.126H339.263ZM344.896 83.5098C345.529 82.7129 346.338 82.3145 347.322 82.3145C348.371 82.3145 349.162 82.625 349.695 83.2461C350.229 83.8672 350.501 84.7842 350.513 85.9971V92H347.542V86.0674C347.542 85.5635 347.439 85.1943 347.234 84.96C347.029 84.7197 346.681 84.5996 346.188 84.5996C345.579 84.5996 345.148 84.793 344.896 85.1797V92H341.935V78.5H344.896V83.5098ZM356.762 92.1758C355.303 92.1758 354.122 91.7422 353.22 90.875C352.317 90.002 351.866 88.8682 351.866 87.4736V87.2275C351.866 86.2549 352.045 85.3965 352.402 84.6523C352.766 83.9082 353.293 83.334 353.984 82.9297C354.676 82.5195 355.496 82.3145 356.445 82.3145C357.781 82.3145 358.836 82.7305 359.609 83.5625C360.383 84.3887 360.77 85.543 360.77 87.0254V88.1768H354.881C354.986 88.71 355.218 89.1289 355.575 89.4336C355.933 89.7383 356.396 89.8906 356.964 89.8906C357.901 89.8906 358.634 89.5625 359.161 88.9062L360.515 90.5059C360.146 91.0156 359.621 91.4229 358.941 91.7275C358.268 92.0264 357.541 92.1758 356.762 92.1758ZM356.428 84.5996C355.561 84.5996 355.045 85.1738 354.881 86.3223H357.869V86.0938C357.881 85.6191 357.761 85.2529 357.509 84.9951C357.257 84.7314 356.896 84.5996 356.428 84.5996ZM364.689 82.4902L364.786 83.6064C365.442 82.7451 366.348 82.3145 367.502 82.3145C368.492 82.3145 369.23 82.6104 369.717 83.2021C370.209 83.7939 370.464 84.6846 370.481 85.874V92H367.511V85.9971C367.511 85.5166 367.414 85.165 367.221 84.9424C367.027 84.7139 366.676 84.5996 366.166 84.5996C365.586 84.5996 365.155 84.8281 364.874 85.2852V92H361.912V82.4902H364.689ZM375.579 80.126V82.4902H377.144V84.5469H375.579V88.8975C375.579 89.2549 375.644 89.5039 375.772 89.6445C375.901 89.7852 376.156 89.8555 376.537 89.8555C376.83 89.8555 377.076 89.8379 377.275 89.8027V91.9209C376.742 92.0908 376.186 92.1758 375.605 92.1758C374.586 92.1758 373.833 91.9355 373.347 91.4551C372.86 90.9746 372.617 90.2451 372.617 89.2666V84.5469H371.404V82.4902H372.617V80.126H375.579ZM381.441 92H378.471V82.4902H381.441V92ZM378.295 80.0381C378.295 79.6162 378.447 79.2705 378.752 79.001C379.057 78.7314 379.452 78.5967 379.938 78.5967C380.425 78.5967 380.82 78.7314 381.125 79.001C381.43 79.2705 381.582 79.6162 381.582 80.0381C381.582 80.46 381.43 80.8057 381.125 81.0752C380.82 81.3447 380.425 81.4795 379.938 81.4795C379.452 81.4795 379.057 81.3447 378.752 81.0752C378.447 80.8057 378.295 80.46 378.295 80.0381ZM387.295 89.8906C387.711 89.8906 388.033 89.7793 388.262 89.5566C388.49 89.3281 388.602 89.0117 388.596 88.6074H391.373C391.373 89.6504 390.998 90.5059 390.248 91.1738C389.504 91.8418 388.543 92.1758 387.365 92.1758C385.982 92.1758 384.893 91.7422 384.096 90.875C383.299 90.0078 382.9 88.8066 382.9 87.2715V87.1484C382.9 86.1875 383.076 85.3408 383.428 84.6084C383.785 83.8701 384.298 83.3047 384.966 82.9121C385.634 82.5137 386.425 82.3145 387.339 82.3145C388.575 82.3145 389.557 82.6572 390.283 83.3428C391.01 84.0283 391.373 84.957 391.373 86.1289H388.596C388.596 85.6367 388.476 85.2588 388.235 84.9951C387.995 84.7314 387.673 84.5996 387.269 84.5996C386.501 84.5996 386.053 85.0889 385.924 86.0674C385.883 86.3779 385.862 86.8057 385.862 87.3506C385.862 88.3057 385.977 88.9678 386.205 89.3369C386.434 89.7061 386.797 89.8906 387.295 89.8906ZM397.982 92C397.877 91.8066 397.783 91.5225 397.701 91.1475C397.156 91.833 396.395 92.1758 395.416 92.1758C394.52 92.1758 393.758 91.9062 393.131 91.3672C392.504 90.8223 392.19 90.1396 392.19 89.3193C392.19 88.2881 392.571 87.5088 393.333 86.9814C394.095 86.4541 395.202 86.1904 396.655 86.1904H397.569V85.6895C397.569 84.8164 397.191 84.3799 396.436 84.3799C395.732 84.3799 395.381 84.7256 395.381 85.417H392.419C392.419 84.4971 392.809 83.75 393.588 83.1758C394.373 82.6016 395.372 82.3145 396.585 82.3145C397.798 82.3145 398.756 82.6104 399.459 83.2021C400.162 83.7939 400.522 84.6055 400.54 85.6367V89.8467C400.552 90.7197 400.687 91.3877 400.944 91.8506V92H397.982ZM396.128 90.0664C396.497 90.0664 396.802 89.9873 397.042 89.8291C397.288 89.6709 397.464 89.4922 397.569 89.293V87.7725H396.708C395.677 87.7725 395.161 88.2354 395.161 89.1611C395.161 89.4307 395.252 89.6504 395.434 89.8203C395.615 89.9844 395.847 90.0664 396.128 90.0664ZM405.638 80.126V82.4902H407.202V84.5469H405.638V88.8975C405.638 89.2549 405.702 89.5039 405.831 89.6445C405.96 89.7852 406.215 89.8555 406.596 89.8555C406.889 89.8555 407.135 89.8379 407.334 89.8027V91.9209C406.801 92.0908 406.244 92.1758 405.664 92.1758C404.645 92.1758 403.892 91.9355 403.405 91.4551C402.919 90.9746 402.676 90.2451 402.676 89.2666V84.5469H401.463V82.4902H402.676V80.126H405.638ZM412.977 92.1758C411.518 92.1758 410.337 91.7422 409.435 90.875C408.532 90.002 408.081 88.8682 408.081 87.4736V87.2275C408.081 86.2549 408.26 85.3965 408.617 84.6523C408.98 83.9082 409.508 83.334 410.199 82.9297C410.891 82.5195 411.711 82.3145 412.66 82.3145C413.996 82.3145 415.051 82.7305 415.824 83.5625C416.598 84.3887 416.984 85.543 416.984 87.0254V88.1768H411.096C411.201 88.71 411.433 89.1289 411.79 89.4336C412.147 89.7383 412.61 89.8906 413.179 89.8906C414.116 89.8906 414.849 89.5625 415.376 88.9062L416.729 90.5059C416.36 91.0156 415.836 91.4229 415.156 91.7275C414.482 92.0264 413.756 92.1758 412.977 92.1758ZM412.643 84.5996C411.775 84.5996 411.26 85.1738 411.096 86.3223H414.084V86.0938C414.096 85.6191 413.976 85.2529 413.724 84.9951C413.472 84.7314 413.111 84.5996 412.643 84.5996ZM425.466 82.4902L425.562 83.6064C426.236 82.7451 427.142 82.3145 428.278 82.3145C429.479 82.3145 430.291 82.792 430.713 83.7471C431.357 82.792 432.289 82.3145 433.508 82.3145C435.436 82.3145 436.426 83.4805 436.479 85.8125V92H433.508V85.9971C433.508 85.5107 433.426 85.1562 433.262 84.9336C433.098 84.7109 432.799 84.5996 432.365 84.5996C431.779 84.5996 431.343 84.8604 431.056 85.3818L431.064 85.5049V92H428.094V86.0146C428.094 85.5166 428.015 85.1562 427.856 84.9336C427.698 84.7109 427.396 84.5996 426.951 84.5996C426.383 84.5996 425.949 84.8604 425.65 85.3818V92H422.688V82.4902H425.466ZM442.771 92.1758C441.312 92.1758 440.132 91.7422 439.229 90.875C438.327 90.002 437.876 88.8682 437.876 87.4736V87.2275C437.876 86.2549 438.055 85.3965 438.412 84.6523C438.775 83.9082 439.303 83.334 439.994 82.9297C440.686 82.5195 441.506 82.3145 442.455 82.3145C443.791 82.3145 444.846 82.7305 445.619 83.5625C446.393 84.3887 446.779 85.543 446.779 87.0254V88.1768H440.891C440.996 88.71 441.228 89.1289 441.585 89.4336C441.942 89.7383 442.405 89.8906 442.974 89.8906C443.911 89.8906 444.644 89.5625 445.171 88.9062L446.524 90.5059C446.155 91.0156 445.631 91.4229 444.951 91.7275C444.277 92.0264 443.551 92.1758 442.771 92.1758ZM442.438 84.5996C441.57 84.5996 441.055 85.1738 440.891 86.3223H443.879V86.0938C443.891 85.6191 443.771 85.2529 443.519 84.9951C443.267 84.7314 442.906 84.5996 442.438 84.5996ZM448.599 82.8066L447.676 82.1738C448.221 81.4121 448.502 80.6094 448.52 79.7656V78.5H450.128V79.6426C450.122 80.2285 449.976 80.8145 449.688 81.4004C449.407 81.9805 449.044 82.4492 448.599 82.8066ZM451.297 82.8066L450.374 82.1738C450.919 81.4121 451.2 80.6094 451.218 79.7656V78.5H452.826V79.6426C452.82 80.2285 452.674 80.8145 452.387 81.4004C452.105 81.9805 451.742 82.4492 451.297 82.8066Z" fill="black"/>
<path d="M108.687 238.785C107.355 240.854 103.984 244.793 104.49 247.659C104.822 249.539 106.273 249.24 106.83 247.796C107.191 246.862 107.936 239.602 106.83 243.359C104.51 251.248 110.922 244.682 109.252 241.438C108.5 239.978 107.961 242.933 107.961 243.268C107.961 245.019 108.773 242.76 108.526 242.079C108.145 241.031 107.315 244.056 107.315 245.189C107.315 245.949 108.279 244.148 106.871 243.085C105.242 241.854 106.102 245.707 107.073 245.829C107.472 245.879 107.216 241.9 106.83 242.399C105.611 243.978 105.26 245.931 107.234 245.372" stroke="black" stroke-linecap="round"/>
<path d="M130.163 237.767C129.528 240.54 129.908 246.926 131.818 241.037C132.576 238.698 129.818 241.67 129.728 243.559C129.702 244.094 130.571 241.716 130.598 242.251C130.646 243.172 131.867 248.856 131.818 246.082C131.775 243.632 128.875 239.455 128.334 244.026C128.174 245.382 128.934 248.99 130.947 247.67C131.802 247.11 132.165 244.188 131.557 243.372C131.084 242.739 131.019 245.776 130.555 244.681C130.464 244.466 129.764 240.133 129.074 241.317C128.363 242.538 129.618 246.79 130.163 245.475C130.542 244.56 130.25 241.838 130.25 242.485C130.25 243.264 131.644 245.264 131.644 243.606C131.644 241.425 127.481 239.542 125.852 239.542C124.654 239.542 120.455 241.13 120.757 241.13" stroke="black" stroke-linecap="round"/>
<path d="M107.495 242.861C103.199 240.849 101.547 240.823 97.306 240.823" stroke="black" stroke-linecap="round"/>
<path d="M119.578 271.391C108.801 272.227 109.693 283.772 117.559 288.045C121.835 290.368 126.846 286.215 126.846 281.981C126.846 278.831 127.221 273.835 123.212 273.835C121.579 273.835 114.858 273.273 115.54 274.65" stroke="black" stroke-linecap="round"/>
<path d="M515.923 231.91C509.714 232.069 509.178 245.894 515.559 238.8C518.172 235.894 514.32 229.529 513.28 236.216C512.397 241.895 516.109 235.012 513.28 233.824C509.832 232.375 507.733 242.974 509.726 236.694C510.153 235.351 510.182 234.124 510.182 236.216C510.182 238.478 510.918 236.423 510.501 235.546C510.114 234.733 509.98 237.63 510.592 238.273C510.95 238.649 510.553 235.848 510.683 235.355C511.202 233.392 512.553 231.794 514.328 231.049C516.115 230.298 526.675 225.671 520.024 228.465" stroke="black" stroke-linecap="round"/>
<path d="M534.553 235.991C533.737 242.821 537.145 239.27 536.361 237.467C535.559 235.622 533.311 241.125 535.259 240.234C538.533 238.735 536.638 236.427 535.082 238.942C533.476 241.539 538.044 239.717 535.788 236.683C535.106 235.766 537.278 240.8 537.375 237.651C537.483 234.157 534.09 237.546 535.567 239.865C537.008 242.126 539.827 237.951 537.287 236.544C535.943 235.8 536.166 242.38 537.375 239.772C538.2 237.993 536.618 232.226 535.082 235.438C534.019 237.663 534.471 245.711 536.581 239.588C536.666 239.341 537.775 231.146 535.744 233.27C535.172 233.868 533.899 238.635 535.7 237.559C536.743 236.935 537.551 233.812 537.904 232.671C538.496 230.758 540.566 230.322 542.093 229.35C543.785 228.273 554.183 226.453 551.219 228.52" stroke="black" stroke-linecap="round"/>
<path d="M524.175 260.183C520.64 261.912 517.748 262.587 517.179 266.665C516.83 269.172 517.693 271.39 519.987 272.652C523.066 274.345 526.761 273.049 528.962 270.896C534.747 265.24 529.113 256.975 522.518 263.424" stroke="black" stroke-linecap="round"/>
<path d="M204.293 182.744C206.682 181.362 210.189 178.618 213.089 180.128C213.657 180.424 214.483 182.117 214.483 181.175" stroke="black" stroke-linecap="round"/>
<path d="M233.842 182.744C237.352 179.293 241.224 177.512 245.798 177.658C247.517 177.713 247.353 178.094 246.273 178.969" stroke="black" stroke-linecap="round"/>
<path d="M217.539 199.732C225.722 200.923 233.449 202.491 241.324 198.67C243.733 197.502 247.795 195.459 246.983 191.915" stroke="black" stroke-linecap="round"/>
<path d="M245.05 267.315C249.408 265.896 253.797 265.182 258.297 264.259" stroke="black" stroke-linecap="round"/>
<path d="M282.751 264.259C286.212 261.759 289.696 259.01 294.347 259.171C296.143 259.233 293.563 260.063 293.275 260.17" stroke="black" stroke-linecap="round"/>
<path d="M251.164 287.549C261.078 290.484 271.283 294.461 281.082 289.198C283.471 287.915 290.284 284.85 290.876 281.44C291.143 279.902 289.27 279.213 288.828 279.694" stroke="black" stroke-linecap="round"/>
<path d="M359.17 198.028C362.835 195.7 367.425 193.037 371.683 194.261C373.152 194.683 373.384 195.734 374.454 195.08" stroke="black" stroke-linecap="round"/>
<path d="M390.757 195.721C398.208 194.47 403.039 194.31 409.098 199.047" stroke="black" stroke-linecap="round"/>
<path d="M370.379 214.847C379.802 220.087 390.434 219.515 398.909 213.312" stroke="black" stroke-linecap="round"/>
<path d="M372.416 271.391C375.124 270.096 382.117 266.824 384.644 269.145" stroke="white" stroke-linecap="round"/>
<path d="M400.946 270.686C404.5 269.201 417.249 265.441 417.249 272.41" stroke="white" stroke-linecap="round"/>
<path d="M379.983 293.808C374.903 314.432 410.467 315.132 407.951 297.923C407.679 296.06 390.348 301.454 388.222 301.681C384.077 302.125 379.931 300.182 377.511 297.029" stroke="white" stroke-linecap="round"/>
<path d="M375.473 257.809C370.707 256.294 367.923 257.248 365.284 261.202" stroke="white" stroke-linecap="round"/>
<path d="M412.155 255.088C416.467 255.792 425.33 256.027 426.858 260.82C427.303 262.217 428.202 264.259 426.127 264.259" stroke="white" stroke-linecap="round"/>
<path d="M128.893 226.558C133.706 226.696 138.853 226.778 140.732 231.392C140.822 231.613 141.12 234.577 141.12 233.427" stroke="black" stroke-linecap="round"/>
<path d="M101.382 224.521C97.602 226.738 92.9252 229.21 91.4101 233.89C91.3792 233.986 91.1924 236.674 91.1924 235.375" stroke="black" stroke-linecap="round"/>
<path d="M513.028 216.484C507.344 212.438 503.206 214.477 498.763 219.426" stroke="black" stroke-linecap="round"/>
<path d="M551.748 215.35C554.971 217.751 558.956 219.756 560.927 223.504C563.231 227.886 561.184 226.694 558.863 225.19" stroke="black" stroke-linecap="round"/>
<path d="M103.069 158.908C105.491 163.391 110.459 183.913 110.459 168.118C110.459 156.069 116.01 160.112 123.186 157.973C138.581 153.385 154.274 151.159 169.375 145.158C175.426 142.754 184.208 142.026 188.466 135.481C192.275 129.627 188.04 113.601 186.003 107.515C180.07 89.7973 163.097 91.3207 150.899 92.5649C134.998 94.1868 119.696 94.2042 103.993 91.0965C95.2508 89.3665 85.5588 88.0263 76.7414 88.0263C57.5303 88.0263 37.9428 86.6297 22.2904 104.178C20.2923 106.418 15.2415 109.858 14.5924 113.389C13.6165 118.696 14.0131 126.595 14.5924 131.943C16.1462 146.291 29.6024 144.096 37.4813 145.959C40.5508 146.685 42.8139 149.709 45.8465 150.498C49.0803 151.339 52.7292 152.275 55.854 153.568C61.6314 155.959 68.7298 157.706 74.8426 157.706C76.8927 157.706 79.0854 157.976 81.1036 157.439C83.9759 156.675 86.4035 153.249 89.2123 152.901C91.6665 152.597 99.9304 156.982 100.297 156.505" stroke="black" stroke-width="0.5" stroke-linecap="round"/>
<path d="M371.693 119.512C376.596 125.97 379.607 133.001 382.893 140.481C385.761 147.007 386.232 148.542 386.232 140.71C386.232 135.257 389.123 130.694 390.055 125.241C390.856 120.549 390.805 122.838 395.924 123.407C403.211 124.219 411.197 122.905 418.378 121.46C427.423 119.639 437.925 115.988 446.324 111.834C452.384 108.837 460.295 107.624 465.17 102.438C470.769 96.4798 469.021 83.4115 467.431 75.9685C465.308 66.0283 457.944 54.906 450.416 48.8114C436.53 37.5699 419.687 39.0715 403.247 39.0715C394.07 39.0715 385.244 38.6453 376.055 39.0142C367.835 39.3443 358.541 40.1303 350.37 38.8424C339.771 37.1716 330.447 31.2611 319.732 29.79C301.445 27.2793 283.905 31.1782 266.101 35.5194C253.766 38.5272 241.283 42.9428 229.702 48.3531C220.078 52.8486 217.296 65.4343 219.955 75.9685C221.826 83.3783 229.47 89.7134 234.117 95.2764C244.035 107.149 260 115.735 274.232 120.314C289.798 125.321 304.398 122.605 320.324 122.605C332.886 122.605 344.21 122.689 356.401 119.741C357.869 119.386 367.816 115.854 367.816 117.449" stroke="black" stroke-width="0.5" stroke-linecap="round"/>
<path d="M528.934 136.426C528.299 140.843 525.361 148.584 527.154 153.056C528.389 156.137 534.933 150.763 536.057 149.92C539.003 147.71 539.929 145.668 541.661 142.84C542.244 141.888 541.597 139.857 542.342 139.181C542.749 138.812 543.908 139.926 544.122 140.037C547.017 141.529 550.378 142.376 553.654 142.793C566.212 144.388 579.219 140.702 591.886 140.702C604.679 140.702 617.101 138.769 629.804 137.471C649.279 135.48 676.541 127.707 686.157 110.957C689.933 104.379 687.752 92.6745 681.025 88.5302C669.864 81.6549 654.933 76.0679 641.85 73.1353C630.681 70.6319 621.075 68.859 609.431 68.859C600.384 68.859 591.42 67.9346 582.355 68.0037C566.174 68.1271 549.359 67.9166 533.438 70.5695C521.958 72.4826 502.045 74.5119 493.635 82.5433C488.773 87.1867 480.302 103.94 485.779 110.102C488.38 113.028 489.164 116.141 492.64 118.465C494.943 120.004 496.699 122.193 498.768 123.977C501.875 126.655 505.466 129.032 508.928 131.294C511.793 133.165 514.25 134.311 517.622 135.76C520.506 137 530.241 137.281 527.049 137.281" stroke="black" stroke-width="0.5" stroke-linecap="round"/>
<path d="M60.5518 112.66H55.1904L53.9863 116H52.2461L57.1328 103.203H58.6094L63.5049 116H61.7734L60.5518 112.66ZM55.7002 111.271H60.0508L57.8711 105.286L55.7002 111.271ZM69.5693 107.949C69.3232 107.908 69.0566 107.888 68.7695 107.888C67.7031 107.888 66.9795 108.342 66.5986 109.25V116H64.9727V106.49H66.5547L66.5811 107.589C67.1143 106.739 67.8701 106.314 68.8486 106.314C69.165 106.314 69.4053 106.355 69.5693 106.438V107.949ZM74.8428 116.176C73.5537 116.176 72.5049 115.754 71.6963 114.91C70.8877 114.061 70.4834 112.927 70.4834 111.509V111.21C70.4834 110.267 70.6621 109.426 71.0195 108.688C71.3828 107.943 71.8867 107.363 72.5312 106.947C73.1816 106.525 73.8848 106.314 74.6406 106.314C75.877 106.314 76.8379 106.722 77.5234 107.536C78.209 108.351 78.5518 109.517 78.5518 111.034V111.711H72.1094C72.1328 112.648 72.4053 113.407 72.9268 113.987C73.4541 114.562 74.1221 114.849 74.9307 114.849C75.5049 114.849 75.9912 114.731 76.3896 114.497C76.7881 114.263 77.1367 113.952 77.4355 113.565L78.4287 114.339C77.6318 115.563 76.4365 116.176 74.8428 116.176ZM74.6406 107.65C73.9844 107.65 73.4336 107.891 72.9883 108.371C72.543 108.846 72.2676 109.514 72.1621 110.375H76.9258V110.252C76.8789 109.426 76.6562 108.787 76.2578 108.336C75.8594 107.879 75.3203 107.65 74.6406 107.65ZM88.0176 113.618L90.2324 106.49H91.9727L88.1494 117.468C87.5576 119.05 86.6172 119.841 85.3281 119.841L85.0205 119.814L84.4141 119.7V118.382L84.8535 118.417C85.4043 118.417 85.832 118.306 86.1367 118.083C86.4473 117.86 86.7021 117.453 86.9014 116.861L87.2617 115.895L83.8691 106.49H85.6445L88.0176 113.618ZM92.8604 111.157C92.8604 110.226 93.042 109.388 93.4053 108.644C93.7744 107.899 94.2842 107.325 94.9346 106.921C95.5908 106.517 96.3379 106.314 97.1758 106.314C98.4707 106.314 99.5166 106.763 100.313 107.659C101.116 108.556 101.518 109.748 101.518 111.236V111.351C101.518 112.276 101.339 113.108 100.981 113.847C100.63 114.579 100.123 115.15 99.4609 115.561C98.8047 115.971 98.0488 116.176 97.1934 116.176C95.9043 116.176 94.8584 115.728 94.0557 114.831C93.2588 113.935 92.8604 112.748 92.8604 111.271V111.157ZM94.4951 111.351C94.4951 112.405 94.7383 113.252 95.2246 113.891C95.7168 114.529 96.373 114.849 97.1934 114.849C98.0195 114.849 98.6758 114.526 99.1621 113.882C99.6484 113.231 99.8916 112.323 99.8916 111.157C99.8916 110.114 99.6426 109.271 99.1445 108.626C98.6523 107.976 97.9961 107.65 97.1758 107.65C96.373 107.65 95.7256 107.97 95.2334 108.608C94.7412 109.247 94.4951 110.161 94.4951 111.351ZM109.428 115.06C108.795 115.804 107.866 116.176 106.642 116.176C105.628 116.176 104.854 115.883 104.321 115.297C103.794 114.705 103.527 113.832 103.521 112.678V106.49H105.147V112.634C105.147 114.075 105.733 114.796 106.905 114.796C108.147 114.796 108.974 114.333 109.384 113.407V106.49H111.01V116H109.463L109.428 115.06ZM54.4434 123.333L55.375 123.966C54.8301 124.71 54.5488 125.513 54.5312 126.374V127.569H52.9141V126.55C52.9141 125.952 53.0547 125.36 53.3359 124.774C53.623 124.188 53.9922 123.708 54.4434 123.333ZM57.2119 123.333L58.1436 123.966C57.5986 124.71 57.3174 125.513 57.2998 126.374V127.569H55.6826V126.55C55.6826 125.952 55.8232 125.36 56.1045 124.774C56.3916 124.188 56.7607 123.708 57.2119 123.333ZM66.5986 134.609H62.3711L61.6328 137H58.3369L63.0303 124.203H65.9307L70.6592 137H67.3457L66.5986 134.609ZM63.1094 132.228H65.8604L64.4805 127.789L63.1094 132.228ZM77.0225 135.972C76.3955 136.774 75.5488 137.176 74.4824 137.176C73.4395 137.176 72.6484 136.874 72.1094 136.271C71.5762 135.661 71.3096 134.788 71.3096 133.651V127.49H74.2715V133.669C74.2715 134.483 74.667 134.891 75.458 134.891C76.1377 134.891 76.6211 134.647 76.9082 134.161V127.49H79.8877V137H77.1104L77.0225 135.972ZM84.9678 125.126V127.49H86.5322V129.547H84.9678V133.897C84.9678 134.255 85.0322 134.504 85.1611 134.645C85.29 134.785 85.5449 134.855 85.9258 134.855C86.2188 134.855 86.4648 134.838 86.6641 134.803V136.921C86.1309 137.091 85.5742 137.176 84.9941 137.176C83.9746 137.176 83.2217 136.936 82.7354 136.455C82.249 135.975 82.0059 135.245 82.0059 134.267V129.547H80.793V127.49H82.0059V125.126H84.9678ZM90.6016 128.51C91.2344 127.713 92.043 127.314 93.0273 127.314C94.0762 127.314 94.8672 127.625 95.4004 128.246C95.9336 128.867 96.2061 129.784 96.2178 130.997V137H93.2471V131.067C93.2471 130.563 93.1445 130.194 92.9395 129.96C92.7344 129.72 92.3857 129.6 91.8936 129.6C91.2842 129.6 90.8535 129.793 90.6016 130.18V137H87.6396V123.5H90.6016V128.51ZM102.467 137.176C101.008 137.176 99.8271 136.742 98.9248 135.875C98.0225 135.002 97.5713 133.868 97.5713 132.474V132.228C97.5713 131.255 97.75 130.396 98.1074 129.652C98.4707 128.908 98.998 128.334 99.6895 127.93C100.381 127.52 101.201 127.314 102.15 127.314C103.486 127.314 104.541 127.73 105.314 128.562C106.088 129.389 106.475 130.543 106.475 132.025V133.177H100.586C100.691 133.71 100.923 134.129 101.28 134.434C101.638 134.738 102.101 134.891 102.669 134.891C103.606 134.891 104.339 134.562 104.866 133.906L106.22 135.506C105.851 136.016 105.326 136.423 104.646 136.728C103.973 137.026 103.246 137.176 102.467 137.176ZM102.133 129.6C101.266 129.6 100.75 130.174 100.586 131.322H103.574V131.094C103.586 130.619 103.466 130.253 103.214 129.995C102.962 129.731 102.602 129.6 102.133 129.6ZM110.395 127.49L110.491 128.606C111.147 127.745 112.053 127.314 113.207 127.314C114.197 127.314 114.936 127.61 115.422 128.202C115.914 128.794 116.169 129.685 116.187 130.874V137H113.216V130.997C113.216 130.517 113.119 130.165 112.926 129.942C112.732 129.714 112.381 129.6 111.871 129.6C111.291 129.6 110.86 129.828 110.579 130.285V137H107.617V127.49H110.395ZM121.284 125.126V127.49H122.849V129.547H121.284V133.897C121.284 134.255 121.349 134.504 121.478 134.645C121.606 134.785 121.861 134.855 122.242 134.855C122.535 134.855 122.781 134.838 122.98 134.803V136.921C122.447 137.091 121.891 137.176 121.311 137.176C120.291 137.176 119.538 136.936 119.052 136.455C118.565 135.975 118.322 135.245 118.322 134.267V129.547H117.109V127.49H118.322V125.126H121.284ZM127.146 137H124.176V127.49H127.146V137ZM124 125.038C124 124.616 124.152 124.271 124.457 124.001C124.762 123.731 125.157 123.597 125.644 123.597C126.13 123.597 126.525 123.731 126.83 124.001C127.135 124.271 127.287 124.616 127.287 125.038C127.287 125.46 127.135 125.806 126.83 126.075C126.525 126.345 126.13 126.479 125.644 126.479C125.157 126.479 124.762 126.345 124.457 126.075C124.152 125.806 124 125.46 124 125.038ZM133 134.891C133.416 134.891 133.738 134.779 133.967 134.557C134.195 134.328 134.307 134.012 134.301 133.607H137.078C137.078 134.65 136.703 135.506 135.953 136.174C135.209 136.842 134.248 137.176 133.07 137.176C131.688 137.176 130.598 136.742 129.801 135.875C129.004 135.008 128.605 133.807 128.605 132.271V132.148C128.605 131.188 128.781 130.341 129.133 129.608C129.49 128.87 130.003 128.305 130.671 127.912C131.339 127.514 132.13 127.314 133.044 127.314C134.28 127.314 135.262 127.657 135.988 128.343C136.715 129.028 137.078 129.957 137.078 131.129H134.301C134.301 130.637 134.181 130.259 133.94 129.995C133.7 129.731 133.378 129.6 132.974 129.6C132.206 129.6 131.758 130.089 131.629 131.067C131.588 131.378 131.567 131.806 131.567 132.351C131.567 133.306 131.682 133.968 131.91 134.337C132.139 134.706 132.502 134.891 133 134.891ZM139.398 128.211L138.098 127.508C138.584 126.664 138.833 125.838 138.845 125.029V123.5H141.007V124.933C141.007 125.478 140.849 126.061 140.532 126.682C140.222 127.297 139.844 127.807 139.398 128.211ZM142.58 128.211L141.279 127.508C141.766 126.664 142.015 125.838 142.026 125.029V123.5H144.188V124.933C144.188 125.478 144.03 126.061 143.714 126.682C143.403 127.297 143.025 127.807 142.58 128.211ZM148.284 133.396C148.296 132.699 148.375 132.148 148.521 131.744C148.668 131.34 148.967 130.892 149.418 130.399L150.569 129.213C151.062 128.656 151.308 128.059 151.308 127.42C151.308 126.805 151.146 126.324 150.824 125.979C150.502 125.627 150.033 125.451 149.418 125.451C148.82 125.451 148.34 125.609 147.977 125.926C147.613 126.242 147.432 126.667 147.432 127.2H145.806C145.817 126.251 146.154 125.486 146.816 124.906C147.484 124.32 148.352 124.027 149.418 124.027C150.525 124.027 151.387 124.326 152.002 124.924C152.623 125.516 152.934 126.33 152.934 127.367C152.934 128.393 152.459 129.403 151.51 130.399L150.552 131.349C150.124 131.823 149.91 132.506 149.91 133.396H148.284ZM148.214 136.183C148.214 135.919 148.293 135.699 148.451 135.523C148.615 135.342 148.855 135.251 149.172 135.251C149.488 135.251 149.729 135.342 149.893 135.523C150.057 135.699 150.139 135.919 150.139 136.183C150.139 136.446 150.057 136.666 149.893 136.842C149.729 137.012 149.488 137.097 149.172 137.097C148.855 137.097 148.615 137.012 148.451 136.842C148.293 136.666 148.214 136.446 148.214 136.183Z" fill="black"/>
</svg>
